<?xml version="1.0" standalone="no"?>
<!DOCTYPE svg PUBLIC "-//W3C//DTD SVG 20010904//EN"
 "http://www.w3.org/TR/2001/REC-SVG-20010904/DTD/svg10.dtd">
<svg version="1.0" xmlns="http://www.w3.org/2000/svg"
 width="3557.000000pt" height="3557.000000pt" viewBox="0 0 3557.000000 3557.000000"
 preserveAspectRatio="xMidYMid meet">
<metadata>
Created by potrace 1.14, written by Peter Selinger 2001-2017
</metadata>
<g transform="translate(0.000000,3557.000000) scale(0.100000,-0.100000)"
fill="#000000" stroke="none">
<path d="M19939 35483 c0 -121 -17 -504 -24 -545 -2 -13 -6 -66 -10 -118 -3
-52 -8 -108 -10 -125 -2 -16 -7 -61 -10 -100 -13 -139 -33 -326 -40 -375 -2
-14 -6 -50 -10 -80 -3 -30 -12 -102 -20 -160 -8 -58 -17 -125 -20 -150 -5 -43
-61 -417 -70 -470 -3 -14 -21 -117 -40 -230 -291 -1674 -819 -3367 -1500
-4805 -69 -146 -279 -566 -333 -665 -554 -1029 -1103 -1839 -1791 -2645 -47
-55 -88 -102 -91 -105 -3 -3 -23 -25 -44 -50 -267 -308 -815 -856 -1095 -1096
-19 -16 -41 -36 -50 -45 -68 -67 -538 -450 -706 -575 -44 -32 -82 -62 -85 -65
-11 -13 -364 -261 -520 -366 -1574 -1055 -3426 -1770 -5510 -2127 -80 -14
-163 -28 -185 -31 -22 -3 -51 -8 -65 -10 -47 -8 -225 -34 -275 -40 -27 -3 -61
-8 -75 -10 -74 -14 -441 -57 -680 -80 -25 -3 -92 -9 -150 -15 -58 -5 -136 -12
-175 -15 -38 -3 -97 -7 -130 -10 -75 -6 -169 -12 -310 -20 -60 -3 -132 -8
-160 -10 -27 -2 -131 -7 -230 -10 -99 -4 -225 -8 -280 -10 -55 -2 -190 -4
-299 -4 -110 -1 -197 -3 -195 -5 2 -2 159 -7 349 -10 190 -4 372 -9 405 -11
33 -1 128 -6 210 -9 83 -4 175 -9 205 -11 30 -2 102 -7 160 -10 58 -3 121 -8
140 -10 19 -2 73 -7 120 -10 47 -3 105 -8 130 -10 25 -3 74 -7 110 -10 85 -7
169 -16 200 -20 14 -2 57 -7 95 -10 39 -3 81 -8 95 -10 14 -2 50 -7 80 -10 56
-6 265 -33 310 -40 14 -2 45 -6 70 -9 40 -5 213 -30 280 -41 419 -69 613 -105
905 -167 105 -22 199 -42 210 -44 49 -9 555 -136 690 -173 171 -47 198 -55
505 -150 1408 -437 2705 -1081 3850 -1911 334 -243 765 -590 995 -802 22 -20
50 -45 63 -56 146 -127 574 -548 773 -762 305 -329 566 -638 872 -1034 43 -56
294 -402 345 -476 683 -986 1271 -2097 1719 -3245 117 -301 128 -330 198 -523
344 -959 634 -2042 824 -3082 58 -316 120 -708 146 -915 4 -27 11 -78 16 -112
5 -34 12 -86 14 -115 3 -29 7 -64 10 -78 4 -27 11 -93 20 -180 3 -30 8 -71 10
-90 9 -79 15 -139 20 -200 3 -36 7 -85 10 -110 2 -25 7 -83 11 -130 3 -47 8
-96 9 -110 5 -42 18 -329 19 -427 2 -145 14 -109 15 44 1 76 4 158 6 183 2 25
6 97 10 160 3 63 8 126 10 140 2 14 7 67 10 118 3 51 8 100 9 110 2 9 7 58 11
107 4 50 9 98 10 107 2 10 6 48 10 86 3 38 7 78 9 88 2 10 7 50 11 88 4 38 9
79 10 90 2 12 6 44 10 71 8 72 42 318 66 470 11 72 22 146 25 165 28 191 148
833 179 960 7 30 16 69 18 85 3 17 8 41 11 55 101 437 151 642 208 855 257
965 555 1827 923 2670 86 197 104 236 220 485 106 225 317 637 461 897 83 150
241 424 279 483 12 19 67 107 121 195 96 157 390 601 456 689 18 24 53 73 78
108 501 702 1121 1403 1786 2018 129 119 151 139 304 269 80 68 159 135 175
150 100 87 527 417 685 529 210 150 563 386 697 467 18 11 76 47 130 80 54 33
107 65 118 71 11 6 75 43 143 82 67 39 151 87 187 107 36 20 82 45 103 57 63
36 591 301 697 350 834 385 1647 671 2565 903 198 49 580 138 675 155 22 5
148 28 280 53 223 42 588 103 730 122 17 3 62 9 100 14 39 6 90 13 115 16 25
3 61 7 80 10 144 19 436 52 530 60 36 3 135 7 221 10 86 3 167 9 180 14 23 8
83 15 209 26 52 4 143 9 360 20 52 3 223 7 380 10 357 6 654 16 659 21 2 2
-106 4 -240 5 -281 1 -378 4 -789 24 -47 2 -145 7 -219 10 -167 9 -203 12
-240 20 -17 3 -81 8 -143 10 -137 4 -258 15 -278 24 -8 4 -48 8 -89 9 -41 1
-140 9 -220 18 -80 9 -159 17 -176 19 -16 2 -68 8 -115 14 -47 7 -101 14 -120
16 -98 12 -432 61 -480 70 -14 3 -41 7 -60 10 -19 3 -46 8 -60 10 -14 3 -41 7
-61 10 -19 2 -118 20 -220 39 -101 19 -197 37 -214 40 -118 21 -547 117 -770
173 -876 218 -1709 507 -2495 865 -171 78 -615 297 -722 356 -29 16 -84 46
-123 67 -511 276 -1082 645 -1575 1019 -140 106 -418 327 -491 390 -19 17 -62
54 -94 81 -113 95 -250 217 -425 380 -181 168 -580 574 -750 764 -41 46 -82
91 -91 100 -8 9 -60 68 -114 131 -54 63 -110 129 -124 145 -15 17 -99 120
-187 230 -318 397 -615 813 -883 1235 -61 96 -115 180 -121 187 -5 7 -10 14
-10 16 0 3 -29 53 -66 112 -358 585 -767 1395 -1061 2100 -583 1397 -987 2836
-1249 4450 -2 17 -9 55 -14 85 -5 30 -12 80 -15 110 -4 30 -8 57 -10 60 -1 3
-6 32 -9 65 -4 33 -9 67 -11 75 -2 8 -6 40 -10 70 -3 30 -7 66 -9 80 -2 14 -7
52 -11 85 -6 56 -10 84 -20 160 -4 33 -36 335 -50 480 -2 22 -7 87 -10 145 -4
58 -9 108 -11 111 -4 8 -17 342 -18 471 -1 54 -4 98 -8 98 -5 0 -8 -35 -9 -77z"/>
<path d="M4673 20313 c15 -2 37 -2 50 0 12 2 0 4 -28 4 -27 0 -38 -2 -22 -4z"/>
<path d="M8069 15339 c0 -63 -2 -121 -4 -129 -1 -9 -6 -70 -10 -135 -4 -66 -8
-122 -10 -125 -1 -3 -6 -41 -9 -85 -4 -44 -9 -91 -11 -105 -5 -28 -8 -55 -25
-180 -6 -47 -13 -96 -15 -110 -14 -88 -45 -279 -50 -300 -3 -14 -10 -52 -16
-85 -43 -242 -159 -727 -229 -960 -135 -446 -279 -839 -449 -1220 -150 -335
-420 -820 -634 -1140 -110 -163 -352 -490 -404 -543 -7 -7 -29 -34 -50 -60
-21 -26 -45 -54 -53 -62 -8 -8 -44 -49 -79 -90 -93 -108 -427 -439 -561 -556
-897 -782 -1954 -1289 -3215 -1543 -149 -30 -419 -76 -505 -86 -72 -9 -123
-15 -150 -20 -14 -2 -54 -7 -90 -10 -36 -3 -76 -8 -90 -10 -14 -2 -61 -7 -105
-10 -44 -4 -92 -8 -108 -10 -15 -2 -85 -7 -155 -10 -70 -4 -143 -8 -162 -10
-19 -2 -150 -6 -290 -10 -140 -4 -257 -9 -259 -11 -2 -2 90 -4 205 -5 115 0
234 -2 264 -4 30 -2 109 -6 175 -10 132 -7 445 -33 485 -40 14 -2 52 -7 85
-10 33 -3 74 -8 90 -10 507 -71 787 -128 1230 -250 189 -52 573 -182 680 -230
17 -7 64 -27 105 -43 374 -149 832 -396 1200 -647 186 -127 266 -187 460 -346
1318 -1081 2222 -2732 2614 -4774 40 -209 97 -591 111 -745 3 -30 7 -71 10
-90 2 -19 7 -71 11 -115 3 -44 8 -98 9 -120 2 -22 5 -73 6 -112 2 -95 19 -95
20 0 0 39 2 83 3 97 2 14 7 68 10 120 4 52 9 109 11 125 2 17 7 57 10 90 12
113 26 222 40 315 2 14 7 45 10 70 17 124 99 565 130 700 2 8 11 49 20 90 80
352 231 855 360 1199 307 824 713 1555 1205 2171 64 80 123 152 131 160 8 9
39 45 69 80 188 221 493 518 750 731 255 211 623 469 842 590 26 14 53 30 60
36 18 14 195 107 363 191 411 205 948 401 1431 521 80 20 371 85 429 95 158
29 323 58 385 66 41 6 92 13 113 16 130 18 262 32 270 27 10 -6 113 -13 182
-13 75 1 176 21 182 35 7 19 246 33 592 34 79 1 142 3 140 5 -2 2 -116 7 -254
10 -137 4 -252 10 -255 14 -3 4 -51 7 -107 7 -86 0 -104 3 -115 18 -14 18 -31
20 -140 16 -38 -1 -73 3 -81 9 -9 8 -75 11 -193 11 -98 0 -190 2 -204 5 -13 3
-42 8 -65 11 -622 87 -1240 246 -1784 459 -1160 455 -2121 1186 -2867 2182
-711 950 -1221 2131 -1495 3461 -16 78 -31 159 -35 180 -3 21 -7 45 -9 53 -2
8 -7 31 -10 50 -3 19 -10 58 -15 85 -5 28 -11 66 -14 85 -3 19 -12 82 -20 140
-41 279 -68 546 -81 800 -4 69 -8 127 -11 129 -2 2 -4 -47 -5 -110z"/>
<path d="M8073 51 c1 -22 4 -37 7 -35 8 9 9 74 0 74 -4 0 -7 -18 -7 -39z"/>
</g>
</svg>
