<?xml version="1.0" encoding="utf-8"?>
<!-- Generator: Adobe Illustrator 23.0.5, SVG Export Plug-In . SVG Version: 6.00 Build 0)  -->
<svg version="1.1" id="Capa_1" xmlns="http://www.w3.org/2000/svg" xmlns:xlink="http://www.w3.org/1999/xlink" x="0px" y="0px"
	 viewBox="0 0 500 500" style="enable-background:new 0 0 500 500;" xml:space="preserve">
<style type="text/css">
	.st0{fill:none;}
	.st1{fill:#1E90FF;}
</style>
<g>
	<rect x="128.43" y="273.04" class="st0" width="4.7" height="3.52"/>
	<g>
		<g>
			<path class="st1" d="M317.42,296.87c0,16.62-4.35,31.3-13.04,44.05c-8.69,12.75-21.16,22.73-37.38,29.95
				c-16.23,7.21-35.74,10.82-58.54,10.82c-25.25,0-46.4-3.7-63.47-11.11c-17.07-7.41-31.2-16.58-42.41-27.53l32.07-35.55
				c9.92,8.63,20.87,15.3,32.84,20c11.98,4.7,25.12,7.05,39.41,7.05c8.89,0,16.68-1.29,23.38-3.86c6.7-2.58,11.91-6.31,15.65-11.21
				c3.73-4.89,5.6-10.82,5.6-17.77c0-6.57-1.48-12.1-4.44-16.62c-2.96-4.51-7.95-8.56-14.97-12.17c-7.02-3.6-16.78-7.28-29.27-11.01
				c-20.87-6.44-37.64-13.52-50.33-21.25c-12.69-7.73-21.9-16.68-27.63-26.85c-5.73-10.17-8.6-22.02-8.6-35.55
				c0-16.35,4.54-30.33,13.62-41.92s21.28-20.45,36.61-26.56c15.33-6.12,32.2-9.18,50.62-9.18c20.74,0,39.03,2.99,54.87,8.98
				c15.84,5.99,29.56,14.52,41.15,25.6l-29.95,34.39c-9.02-7.6-18.74-13.23-29.17-16.9c-10.43-3.67-21.06-5.51-31.88-5.51
				c-7.99,0-15.01,1-21.06,2.99c-6.06,2-10.76,4.93-14.1,8.79c-3.35,3.86-5.02,8.69-5.02,14.49c0,5.67,1.61,10.43,4.83,14.3
				c3.22,3.86,8.82,7.5,16.81,10.92c7.98,3.41,19.06,7.38,33.23,11.88c16.87,5.15,31.33,11.3,43.37,18.45
				c12.04,7.15,21.25,16.13,27.63,26.95C314.24,266.73,317.42,280.39,317.42,296.87z"/>
		</g>
	</g>
	<rect x="369.87" y="88.87" class="st1" width="14.61" height="314.09"/>
	<rect x="361" y="81.57" class="st1" width="34.96" height="13.57"/>
	<rect x="361" y="389.39" class="st1" width="34.96" height="13.57"/>
</g>
</svg>
